<?xml version="1.0" standalone="no"?>
<!DOCTYPE svg PUBLIC "-//W3C//DTD SVG 20010904//EN"
 "http://www.w3.org/TR/2001/REC-SVG-20010904/DTD/svg10.dtd">
<svg version="1.0" xmlns="http://www.w3.org/2000/svg"
 width="301.000000pt" height="266.000000pt" viewBox="0 0 301.000000 266.000000"
 preserveAspectRatio="xMidYMid meet">

<g transform="translate(0.000000,266.000000) scale(0.100000,-0.100000)"
fill="#000000" stroke="none">
<path d="M836 2560 c-166 -16 -235 -41 -251 -91 -7 -20 22 -138 58 -244 36
-104 81 -192 135 -262 126 -167 276 -196 439 -87 36 24 69 44 73 44 4 0 22
-31 39 -70 36 -77 45 -87 66 -70 11 9 10 21 -5 75 -42 145 -89 168 -200 95
-137 -87 -246 -59 -346 91 -63 95 -155 346 -141 384 6 14 192 35 310 35 182 0
289 -54 318 -163 10 -38 8 -112 -4 -124 -3 -2 -15 1 -27 7 -33 18 -182 60
-212 60 -23 0 -28 -5 -28 -23 0 -19 8 -25 46 -35 25 -7 87 -33 138 -57 77 -38
98 -44 118 -36 40 15 62 74 62 166 0 67 -4 88 -27 131 -76 148 -255 203 -561
174z"/>
<path d="M1810 2358 c-126 -18 -232 -84 -275 -173 -48 -96 -32 -250 28 -290
25 -16 29 -15 139 34 62 27 125 53 141 56 20 5 27 13 27 31 0 20 -5 24 -28 24
-30 0 -177 -41 -210 -59 -63 -34 -54 128 11 197 68 74 222 98 452 72 138 -16
138 -16 130 -59 -12 -64 -73 -229 -112 -304 -62 -119 -146 -187 -230 -187 -35
0 -77 18 -194 81 -29 15 -42 17 -65 9 -34 -12 -46 -29 -74 -102 -26 -69 -26
-108 -1 -108 14 0 28 19 52 70 17 39 35 70 39 70 4 0 37 -20 73 -44 95 -64
177 -79 264 -50 133 45 244 195 321 434 58 181 61 234 15 258 -31 16 -136 32
-270 42 -146 11 -145 11 -233 -2z"/>
<path d="M830 1433 c-44 -16 -50 -72 -25 -233 31 -210 122 -415 253 -577 l34
-43 112 0 c238 0 590 20 622 35 55 26 166 194 224 338 64 161 108 443 72 466
-7 4 -88 11 -179 14 -196 8 -1091 8 -1113 0z m1210 -140 c0 -61 -29 -212 -57
-298 -28 -87 -77 -191 -127 -270 -18 -27 -35 -57 -38 -65 -5 -13 -21 -14 -99
-9 -52 4 -205 10 -341 15 l-247 7 -48 75 c-56 89 -85 148 -123 257 -31 86 -60
224 -60 286 l0 39 570 0 570 0 0 -37z"/>
<path d="M1076 1168 c-18 -70 12 -191 69 -275 39 -58 79 -78 100 -49 10 13 4
39 -33 138 -25 68 -52 142 -60 166 -12 36 -19 42 -42 42 -20 0 -29 -6 -34 -22z"/>
<path d="M1468 429 c-10 -5 -18 -21 -18 -34 0 -50 60 -73 93 -37 22 24 21 38
-3 62 -22 22 -46 25 -72 9z"/>
<path d="M145 391 c-74 -34 -105 -85 -105 -173 0 -62 21 -107 63 -139 25 -18
47 -24 102 -27 39 -2 82 1 98 7 26 10 27 13 27 89 l0 78 -40 -4 -40 -4 0 -44
c0 -42 -1 -44 -29 -44 -68 0 -98 114 -45 167 23 22 32 25 80 21 44 -4 54 -2
54 11 0 9 3 26 6 38 5 18 0 23 -33 32 -54 15 -92 13 -138 -8z"/>
<path d="M904 378 c3 -13 16 -70 30 -128 14 -58 28 -123 32 -145 8 -49 16 -55
77 -55 55 0 56 2 77 113 7 37 16 67 21 67 5 0 9 -2 9 -4 0 -27 35 -163 44
-168 14 -10 88 -10 102 0 7 4 17 34 24 67 6 33 20 94 30 135 10 41 22 90 25
108 l7 32 -56 0 c-31 0 -56 -2 -56 -4 0 -16 -22 -165 -27 -180 -7 -25 -18 -6
-27 49 -13 76 -12 75 -76 75 l-58 0 -11 -50 c-6 -28 -11 -58 -11 -65 0 -21
-18 -19 -24 3 -3 9 -8 44 -11 77 -11 97 -9 95 -71 95 -51 0 -54 -1 -50 -22z"/>
<path d="M1878 393 l-28 -4 0 -170 0 -170 48 3 47 3 3 70 c3 73 19 105 52 105
29 0 39 -23 42 -100 l3 -75 48 -3 47 -3 0 90 c0 101 -11 136 -51 157 -39 19
-72 18 -102 -6 -14 -11 -28 -20 -31 -20 -3 0 -6 29 -6 65 0 71 3 69 -72 58z"/>
<path d="M2202 228 l3 -173 45 0 45 0 3 82 c2 46 6 83 10 83 4 0 20 -25 37
-55 39 -72 58 -70 99 9 l31 58 5 -88 5 -89 29 -3 c15 -2 38 -1 50 2 20 5 21
10 21 176 l0 170 -52 0 -53 0 -40 -80 c-22 -44 -44 -80 -48 -80 -4 0 -26 36
-47 80 l-39 80 -53 0 -53 0 2 -172z"/>
<path d="M1670 350 c-13 -26 -27 -40 -40 -40 -15 0 -20 -7 -20 -29 0 -16 6
-31 15 -35 11 -4 15 -22 15 -73 0 -45 5 -76 15 -90 18 -26 64 -37 111 -28 32
6 35 9 32 38 -2 24 -9 33 -28 37 -23 5 -25 10 -25 60 0 53 1 55 28 58 24 3 28
7 25 30 -2 21 -9 28 -30 30 -25 3 -28 7 -28 43 0 35 -3 39 -25 39 -19 0 -29
-10 -45 -40z"/>
<path d="M392 183 l3 -128 45 0 45 0 5 66 c6 76 20 99 62 99 28 0 29 2 26 42
-4 51 -17 56 -56 23 l-31 -26 -3 23 c-3 20 -10 23 -51 26 l-48 3 3 -128z"/>
<path d="M675 296 c-53 -23 -70 -52 -70 -116 0 -65 17 -93 72 -116 130 -55
258 60 198 176 -30 59 -131 87 -200 56z m119 -99 c19 -53 -50 -103 -84 -62
-34 41 6 113 53 96 12 -5 26 -20 31 -34z"/>
<path d="M1452 199 c3 -102 5 -112 27 -130 23 -19 74 -25 105 -13 10 4 16 18
16 40 0 27 -4 34 -19 34 -26 0 -31 19 -31 106 l0 74 -51 0 -51 0 4 -111z"/>
<path d="M2703 295 c-68 -29 -93 -122 -50 -186 34 -51 133 -75 201 -50 21 9
23 14 17 38 -7 25 -11 27 -48 25 -41 -3 -83 11 -83 27 0 5 33 12 73 17 69 9
72 10 69 34 -9 91 -90 134 -179 95z m103 -56 c9 -15 -5 -26 -43 -34 -25 -5
-33 -3 -33 7 0 32 59 53 76 27z"/>
</g>
</svg>
